<?xml version="1.0" encoding="UTF-8" standalone="no"?>
<!-- Created with Inkscape (http://www.inkscape.org/) -->

<svg
   xmlns:dc="http://purl.org/dc/elements/1.1/"
   xmlns:cc="http://creativecommons.org/ns#"
   xmlns:rdf="http://www.w3.org/1999/02/22-rdf-syntax-ns#"
   xmlns:svg="http://www.w3.org/2000/svg"
   xmlns="http://www.w3.org/2000/svg"
   xmlns:sodipodi="http://sodipodi.sourceforge.net/DTD/sodipodi-0.dtd"
   xmlns:inkscape="http://www.inkscape.org/namespaces/inkscape"
   width="230.37759mm"
   height="63.190666mm"
   viewBox="0 0 230.3776 63.190666"
   version="1.1"
   id="svg16579"
   inkscape:version="0.92.0 r"
   sodipodi:docname="ficodes-amarillo.svg">
  <defs
     id="defs16573">
    <filter
       style="color-interpolation-filters:sRGB"
       inkscape:label="Drop Shadow"
       id="filter9763-4-2-1">
      <feFlood
         flood-opacity="0.513726"
         flood-color="rgb(0,0,0)"
         result="flood"
         id="feFlood9753-4-53-5" />
      <feComposite
         in="flood"
         in2="SourceGraphic"
         operator="in"
         result="composite1"
         id="feComposite9755-9-67-6" />
      <feGaussianBlur
         in="composite1"
         stdDeviation="2"
         result="blur"
         id="feGaussianBlur9757-4-48-8" />
      <feOffset
         dx="1.5"
         dy="1.5"
         result="offset"
         id="feOffset9759-2-00-9" />
      <feComposite
         in="SourceGraphic"
         in2="offset"
         operator="over"
         result="composite2"
         id="feComposite9761-7-9-4" />
    </filter>
    <filter
       style="color-interpolation-filters:sRGB"
       inkscape:label="Drop Shadow"
       id="filter17483">
      <feFlood
         flood-opacity="0.392157"
         flood-color="rgb(0,0,0)"
         result="flood"
         id="feFlood17473" />
      <feComposite
         in="flood"
         in2="SourceGraphic"
         operator="in"
         result="composite1"
         id="feComposite17475" />
      <feGaussianBlur
         in="composite1"
         stdDeviation="1.1"
         result="blur"
         id="feGaussianBlur17477" />
      <feOffset
         dx="1.5"
         dy="1.5"
         result="offset"
         id="feOffset17479" />
      <feComposite
         in="SourceGraphic"
         in2="offset"
         operator="over"
         result="composite2"
         id="feComposite17481" />
    </filter>
  </defs>
  <sodipodi:namedview
     id="base"
     pagecolor="#ffffff"
     bordercolor="#666666"
     borderopacity="1.0"
     inkscape:pageopacity="0.0"
     inkscape:pageshadow="2"
     inkscape:zoom="0.98994949"
     inkscape:cx="395.31822"
     inkscape:cy="149.50463"
     inkscape:document-units="mm"
     inkscape:current-layer="layer1"
     showgrid="false"
     fit-margin-top="0"
     fit-margin-left="0"
     fit-margin-right="0"
     fit-margin-bottom="0"
     inkscape:window-width="1680"
     inkscape:window-height="787"
     inkscape:window-x="0"
     inkscape:window-y="23"
     inkscape:window-maximized="0" />
  <metadata
     id="metadata16576">
    <rdf:RDF>
      <cc:Work
         rdf:about="">
        <dc:format>image/svg+xml</dc:format>
        <dc:type
           rdf:resource="http://purl.org/dc/dcmitype/StillImage" />
        <dc:title></dc:title>
      </cc:Work>
    </rdf:RDF>
  </metadata>
  <g
     inkscape:label="Layer 1"
     inkscape:groupmode="layer"
     id="layer1"
     transform="translate(145.78749,-117.181)">
    <g
       id="g14426-3-5"
       transform="translate(-162.21811,117.15477)"
       style="filter:url(#filter17483)">
      <path
         inkscape:connector-curvature="0"
         id="path4498-27-5-5-3-0-9"
         d="m 68.674127,57.78795 h -46.81649 l 6.16006,-52.5106499 37.946,26.1320599 z"
         style="fill:#000000;fill-opacity:1;fill-rule:evenodd;stroke:#ffffff;stroke-width:1.85208333;stroke-linecap:round;stroke-linejoin:round;stroke-miterlimit:4;stroke-dasharray:none;stroke-opacity:1" />
      <rect
         ry="0"
         rx="0"
         y="22.141624"
         x="28.510517"
         height="34.760571"
         width="7.1456752"
         id="rect4500-7-8-5-4-6-4"
         style="color:#000000;clip-rule:nonzero;display:inline;overflow:visible;visibility:visible;opacity:1;isolation:auto;mix-blend-mode:normal;color-interpolation:sRGB;color-interpolation-filters:linearRGB;solid-color:#000000;solid-opacity:1;vector-effect:none;fill:#1b7b9a;fill-opacity:1;fill-rule:evenodd;stroke:none;stroke-width:0.3539502;stroke-linecap:round;stroke-linejoin:round;stroke-miterlimit:4;stroke-dasharray:none;stroke-dashoffset:0;stroke-opacity:1;color-rendering:auto;image-rendering:auto;shape-rendering:auto;text-rendering:auto;enable-background:accumulate" />
      <path
         inkscape:connector-curvature="0"
         id="path4502-1-0-4-2-6-9"
         d="m 45.475317,21.89508 5.91367,-9.36809 5.66726,10.3542 v 34.02098 h -11.58093 z"
         style="opacity:1;vector-effect:none;fill:#f8b338;fill-opacity:1;fill-rule:evenodd;stroke:none;stroke-width:0.26458332px;stroke-linecap:butt;stroke-linejoin:miter;stroke-miterlimit:4;stroke-dasharray:none;stroke-dashoffset:0;stroke-opacity:1" />
      <rect
         y="36.008842"
         x="31.516621"
         height="20.893324"
         width="17.00178"
         id="rect4506-9-4-3-2-8-8"
         style="color:#000000;clip-rule:nonzero;display:inline;overflow:visible;visibility:visible;opacity:1;isolation:auto;mix-blend-mode:normal;color-interpolation:sRGB;color-interpolation-filters:linearRGB;solid-color:#000000;solid-opacity:1;vector-effect:none;fill:#7d9137;fill-opacity:0.82352941;fill-rule:evenodd;stroke:none;stroke-width:0.3539502;stroke-linecap:round;stroke-linejoin:round;stroke-miterlimit:4;stroke-dasharray:none;stroke-dashoffset:0;stroke-opacity:1;color-rendering:auto;image-rendering:auto;shape-rendering:auto;text-rendering:auto;enable-background:accumulate" />
      <rect
         y="45.561852"
         x="59.126026"
         height="11.340328"
         width="17.001781"
         id="rect4504-7-6-2-0-74-8"
         style="color:#000000;clip-rule:nonzero;display:inline;overflow:visible;visibility:visible;opacity:1;isolation:auto;mix-blend-mode:normal;color-interpolation:sRGB;color-interpolation-filters:linearRGB;solid-color:#000000;solid-opacity:1;vector-effect:none;fill:#b92324;fill-opacity:1;fill-rule:evenodd;stroke:none;stroke-width:0.26458332px;stroke-linecap:butt;stroke-linejoin:miter;stroke-miterlimit:4;stroke-dasharray:none;stroke-dashoffset:0;stroke-opacity:1;color-rendering:auto;image-rendering:auto;shape-rendering:auto;text-rendering:auto;enable-background:accumulate" />
    </g>
    <g
       transform="translate(-135.2175,119.12917)"
       id="g6762-8-2-1-5"
       style="fill:#7f9533;fill-opacity:1;filter:url(#filter9763-4-2-1)">
      <g
         transform="translate(-2.4593141,-241.01389)"
         id="text4498-0-0-3-0-3-3"
         style="font-style:normal;font-variant:normal;font-weight:normal;font-stretch:normal;font-size:10.58333302px;line-height:6.61458302px;font-family:'Yanone Kaffeesatz';-inkscape-font-specification:'Yanone Kaffeesatz';letter-spacing:0px;word-spacing:0px;fill:#7f9533;fill-opacity:1;stroke:none;stroke-width:0.26458332px;stroke-linecap:butt;stroke-linejoin:miter;stroke-opacity:1"
         aria-label="ficodes">
        <path
           sodipodi:nodetypes="cccsscsccsscssscsc"
           inkscape:connector-curvature="0"
           id="path4560-86-6-9-2-1-4"
           style="font-style:normal;font-variant:normal;font-weight:normal;font-stretch:normal;font-size:70.55555725px;font-family:'Yanone Kaffeesatz';-inkscape-font-specification:'Yanone Kaffeesatz, Normal';font-variant-ligatures:no-common-ligatures;font-variant-caps:normal;font-variant-numeric:normal;font-feature-settings:normal;text-align:start;writing-mode:lr-tb;text-anchor:start;fill:#f7ab24;fill-opacity:1;stroke-width:0.26458332px"
           d="m 54.964037,266.59056 h 4.868334 V 297 h 4.586111 c 1.058333,0 1.128889,-0.98777 1.128889,-1.19944 v -29.21 h 5.150556 c 1.128888,0 1.199444,-0.35278 1.199444,-4.86834 h -6.35 V 256.995 c 0,-6.06778 3.386667,-6.91444 7.055556,-6.91444 1.552222,0 3.316111,0.14111 5.009444,0.84666 0.423334,-0.98777 0.635,-2.18722 0.635,-3.175 0,-1.76388 -2.257778,-2.89277 -6.561667,-2.89277 -5.362222,0 -11.853333,1.69333 -11.853333,12.55889 v 4.30388 H 56.51626 c -1.552223,0 -1.552223,0.35278 -1.552223,4.86834 z" />
        <path
           sodipodi:nodetypes="cccscscscs"
           inkscape:connector-curvature="0"
           id="path4562-52-7-2-5-2-7"
           style="font-style:normal;font-variant:normal;font-weight:normal;font-stretch:normal;font-size:70.55555725px;font-family:'Yanone Kaffeesatz';-inkscape-font-specification:'Yanone Kaffeesatz, Normal';font-variant-ligatures:no-common-ligatures;font-variant-caps:normal;font-variant-numeric:normal;font-feature-settings:normal;text-align:start;writing-mode:lr-tb;text-anchor:start;fill:#f7ab24;fill-opacity:1;stroke-width:0.26458332px"
           d="m 75.485783,255.79555 c 0,3.31611 1.058334,4.37445 2.892778,4.445 2.187222,0 3.245556,-1.69333 3.245556,-4.58611 0.07055,-2.96333 -0.635,-4.09222 -2.822223,-4.09222 -2.257777,0 -3.245555,1.69333 -3.316111,4.23333 z m 5.785556,40.00501 v -34.07834 c -4.656667,0 -5.856111,0 -5.856111,2.61056 V 297 c 5.785555,0 5.856111,0 5.856111,-1.19944 z" />
        <path
           inkscape:connector-curvature="0"
           id="path4564-3-9-4-9-1-1"
           style="font-style:normal;font-variant:normal;font-weight:normal;font-stretch:normal;font-size:70.55555725px;font-family:'Yanone Kaffeesatz';-inkscape-font-specification:'Yanone Kaffeesatz, Normal';font-variant-ligatures:no-common-ligatures;font-variant-caps:normal;font-variant-numeric:normal;font-feature-settings:normal;text-align:start;writing-mode:lr-tb;text-anchor:start;fill:#f7ab24;fill-opacity:1;stroke-width:0.26458332px"
           d="m 105.24479,263.4861 c 0,-1.83445 -2.54,-3.175 -5.856107,-3.175 -5.785556,0 -12.629445,2.18722 -12.629445,19.12056 0,14.88722 3.739445,17.56833 10.512778,17.56833 4.586114,0 7.831664,-1.69333 7.831664,-3.59833 0,-0.91723 -0.14111,-1.905 -0.56444,-3.175 -1.12889,0.84666 -3.31611,1.69333 -5.573891,1.69333 -4.233333,0 -6.279444,-2.54 -6.279444,-12.48833 0,-12.55889 3.739444,-14.04056 6.985,-14.04056 1.975555,0 3.880555,0.635 5.009445,1.27 0.42333,-1.19944 0.56444,-2.39889 0.56444,-3.175 z" />
        <path
           inkscape:connector-curvature="0"
           id="path4566-68-7-4-4-7-1"
           style="font-style:normal;font-variant:normal;font-weight:normal;font-stretch:normal;font-size:70.55555725px;font-family:'Yanone Kaffeesatz';-inkscape-font-specification:'Yanone Kaffeesatz, Normal';font-variant-ligatures:no-common-ligatures;font-variant-caps:normal;font-variant-numeric:normal;font-feature-settings:normal;text-align:start;writing-mode:lr-tb;text-anchor:start;fill:#f7ab24;fill-opacity:1;stroke-width:0.26458332px"
           d="m 107.561,278.65554 c 0,15.875 3.88055,18.34445 11.07722,18.34445 7.54945,0 11.64167,-5.43278 11.64167,-18.55611 0,-14.32278 -3.59834,-18.13278 -11.00667,-18.13278 -7.33778,0 -11.71222,5.43278 -11.71222,18.34444 z m 6.20889,0.14112 c 0,-11.00667 2.18722,-13.47612 5.29166,-13.47612 3.38667,0 4.93889,1.97556 4.93889,13.19389 0,11.00667 -2.18722,13.61723 -5.22111,13.61723 -3.175,0 -5.00944,-1.69334 -5.00944,-13.335 z" />
        <path
           inkscape:connector-curvature="0"
           id="path4568-8-2-9-7-4-8"
           style="font-style:normal;font-variant:normal;font-weight:normal;font-stretch:normal;font-size:70.55555725px;font-family:'Yanone Kaffeesatz';-inkscape-font-specification:'Yanone Kaffeesatz, Normal';font-variant-ligatures:no-common-ligatures;font-variant-caps:normal;font-variant-numeric:normal;font-feature-settings:normal;text-align:start;writing-mode:lr-tb;text-anchor:start;fill:#f7ab24;fill-opacity:1;stroke-width:0.26458332px"
           d="m 150.2438,247.04665 v 14.67556 c -1.19944,-0.91722 -2.82222,-1.41111 -5.00944,-1.41111 -6.06778,0 -10.795,5.64444 -10.795,19.61444 0,15.31056 5.29167,17.07445 11.43,17.07445 4.37444,0 7.76111,-0.98778 10.08944,-2.11667 V 244.4361 c -4.65666,0 -5.715,0 -5.715,2.61055 z m 0,19.19112 v 24.55333 c -1.12889,0.77611 -2.61055,1.05833 -4.16277,1.05833 -3.31612,0 -5.29167,-1.97555 -5.29167,-12.55889 0,-11.57111 3.10444,-13.97 6.20889,-13.97 1.48166,0 2.32833,0.21167 3.24555,0.91723 z" />
        <path
           inkscape:connector-curvature="0"
           id="path4570-14-9-9-8-50-2"
           style="font-style:normal;font-variant:normal;font-weight:normal;font-stretch:normal;font-size:70.55555725px;font-family:'Yanone Kaffeesatz';-inkscape-font-specification:'Yanone Kaffeesatz, Normal';font-variant-ligatures:no-common-ligatures;font-variant-caps:normal;font-variant-numeric:normal;font-feature-settings:normal;text-align:start;writing-mode:lr-tb;text-anchor:start;fill:#f7ab24;fill-opacity:1;stroke-width:0.26458332px"
           d="m 173.72889,291.4261 c -4.30389,0 -6.35,-1.97556 -6.56167,-9.45444 3.52778,-0.0706 10.08944,-0.21167 14.67556,-1.12889 0.635,-2.54 0.84666,-6.06778 0.84666,-9.17223 0,-7.62 -3.03389,-11.35944 -8.96055,-11.35944 -6.20889,0 -12.55889,2.54 -12.55889,20.17889 0,13.75833 4.72722,16.51 11.28889,16.51 5.36222,0 9.80722,-1.69333 9.80722,-3.88056 0,-1.12889 -0.14111,-2.82222 -0.56445,-3.88055 -2.32833,1.34055 -5.15055,2.18722 -7.97277,2.18722 z m -0.70556,-26.10556 c 3.10445,0 4.02167,1.905 4.09222,6.985 0,1.34056 -0.0706,2.96334 -0.35277,4.23334 -2.39889,0.70555 -6.84389,0.77611 -9.59556,0.77611 0.42333,-9.525 2.96333,-11.99445 5.85611,-11.99445 z" />
        <path
           inkscape:connector-curvature="0"
           id="path4572-58-1-5-1-5-1"
           style="font-style:normal;font-variant:normal;font-weight:normal;font-stretch:normal;font-size:70.55555725px;font-family:'Yanone Kaffeesatz';-inkscape-font-specification:'Yanone Kaffeesatz, Normal';font-variant-ligatures:no-common-ligatures;font-variant-caps:normal;font-variant-numeric:normal;font-feature-settings:normal;text-align:start;writing-mode:lr-tb;text-anchor:start;fill:#f7ab24;fill-opacity:1;stroke-width:0.26458332px"
           d="m 198.16756,260.3111 c -7.90222,0 -11.50056,3.38667 -11.50056,8.32556 0,2.32833 0.84667,4.86833 4.02167,7.47888 l 6.84389,5.85612 c 2.11667,1.905 2.82222,3.59833 2.82222,5.50333 0,2.82222 -2.11666,4.37444 -5.715,4.37444 -2.75166,0 -5.00944,-0.56444 -7.05555,-1.76389 -0.77611,1.19945 -0.98778,2.46945 -0.98778,3.31612 0,2.46944 3.59833,3.59833 8.60778,3.59833 7.19666,0 11.64166,-3.52778 11.64166,-9.80722 0,-3.52778 -1.12889,-5.85611 -4.16277,-8.81945 l -6.56167,-5.29166 c -2.39889,-2.04612 -2.82222,-3.10445 -2.82222,-4.37445 0,-2.18722 2.25777,-3.38667 5.57389,-3.38667 2.68111,0 4.79777,0.56445 6.91444,1.83445 0.77611,-0.84667 1.27,-1.97556 1.27,-2.89278 0,-1.41111 -1.62278,-3.95111 -8.89,-3.95111 z" />
      </g>
    </g>
  </g>
</svg>
