<?xml version="1.0" encoding="UTF-8" standalone="no"?>
<!-- Generator: Assembly 1.0 - http://assemblyapp.co -->

<svg
   xmlns:dc="http://purl.org/dc/elements/1.1/"
   xmlns:cc="http://creativecommons.org/ns#"
   xmlns:rdf="http://www.w3.org/1999/02/22-rdf-syntax-ns#"
   xmlns:svg="http://www.w3.org/2000/svg"
   xmlns="http://www.w3.org/2000/svg"
   xmlns:sodipodi="http://sodipodi.sourceforge.net/DTD/sodipodi-0.dtd"
   xmlns:inkscape="http://www.inkscape.org/namespaces/inkscape"
   version="1.1"
   width="284.23346"
   height="77.455627"
   viewBox="0 0 284.23346 77.455627"
   id="svg64306"
   sodipodi:docname="opp4.svg"
   inkscape:version="0.92.1 r">
  <metadata
     id="metadata64312">
    <rdf:RDF>
      <cc:Work
         rdf:about="">
        <dc:format>image/svg+xml</dc:format>
        <dc:type
           rdf:resource="http://purl.org/dc/dcmitype/StillImage" />
        <dc:title></dc:title>
      </cc:Work>
    </rdf:RDF>
  </metadata>
  <defs
     id="defs64310" />
  <sodipodi:namedview
     pagecolor="#ffffff"
     bordercolor="#666666"
     borderopacity="1"
     objecttolerance="10"
     gridtolerance="10"
     guidetolerance="10"
     inkscape:pageopacity="0"
     inkscape:pageshadow="2"
     inkscape:window-width="1503"
     inkscape:window-height="951"
     id="namedview64308"
     showgrid="false"
     fit-margin-top="0"
     fit-margin-left="0"
     fit-margin-right="0"
     fit-margin-bottom="0"
     inkscape:zoom="0.78666667"
     inkscape:cx="-33.313445"
     inkscape:cy="42.288468"
     inkscape:window-x="0"
     inkscape:window-y="23"
     inkscape:window-maximized="0"
     inkscape:current-layer="svg64306" />
  <g
     id="widget"
     transform="translate(142.11028,35.16716)"
     inkscape:export-filename="opp4.png"
     inkscape:export-xdpi="91.717026"
     inkscape:export-ydpi="91.717026">
    <path
       d="m -62.5989,14.902 c -0.0367,6.3857 1.56,10.0562 3.9309,12.3687 2.3708,2.3126 5.4325,2.9262 8.1571,2.9419 2.8097,0.0161 5.8783,-0.5623 8.2755,-2.8475 2.3972,-2.2852 4.036,-5.937 4.0727,-12.3228 l 0.155,-26.9904 c 0.0567,-9.8767 -3.9998,-15.179 -12.1736,-15.226 -8.0886,-0.0465 -12.2063,5.2941 -12.2626,15.0856 z m 2.7945,-26.9753 c 0.0489,-8.5144 3.137,-12.4985 9.6079,-12.4613 6.3858,0.0366 9.5146,3.801 9.4642,12.5708 l -0.155,26.9905 c -0.0509,8.8549 -3.393,12.5821 -9.6084,12.5464 -6.3858,-0.0367 -9.5131,-4.0565 -9.4637,-12.656 z"
       id="path64283"
       inkscape:connector-curvature="0"
       style="fill:#e9b7b7;fill-opacity:1" />
    <path
       d="m -21.8304,2.96021 c 9.1955,0.05282 13.39637,-4.94668 13.45359,-14.90851 0.05721,-9.9617 -4.08599,-15.0092 -13.28149,-15.062 l -10.3023,-0.0591 -0.3296,57.3866 2.6394,0.0152 0.1575,-27.4162 z m 0.157,-27.33101 c 7.5777,0.0435 10.6229,3.552 10.572,12.4069 -0.0494,8.59948 -3.2212,12.327701 -10.7138,12.284666 l -7.6629,-0.044013 0.1418,-24.691553 z"
       id="path64285"
       inkscape:connector-curvature="0"
       style="fill:#e9b7b7;fill-opacity:1" />
    <path
       d="M 7.11836,3.12648 C 16.3139,3.1793 20.5147,-1.8202 20.5719,-11.782 20.6292,-21.7438 16.486,-26.7912 7.2905,-26.844 l -10.30235,-0.0592 -0.32961,57.3867 2.63945,0.0151 0.157467,-27.41613 z M 7.27534,-24.2046 c 7.57776,0.0436 10.62286,3.5521 10.57206,12.407 C 17.798,-3.19815 14.6261,0.530071 7.13352,0.487036 L -0.529383,0.443023 -0.387565,-24.2486 Z"
       id="path64287"
       inkscape:connector-curvature="0"
       style="fill:#e9b7b7;fill-opacity:1" />
    <path
       d="m 45.2906,28.1233 -17.5395,-0.1008 0.3144,-54.7472 -2.7246,-0.0156 -0.3296,57.3866 20.2641,0.1164 z"
       id="path64289"
       inkscape:connector-curvature="0"
       style="fill:#e9b7b7;fill-opacity:1" />
    <path
       d="M 75.5013,30.9363 78.2259,30.952 65.4435,-26.51 63.3149,-26.5222 54.4165,10.6356 54.4151,10.891 49.788,30.7886 52.5126,30.8043 56.53,13.2872 71.6855,13.3743 Z M 64.295,-19.2792 71.1046,10.7314 57.2263,10.6517 Z"
       id="path64291"
       inkscape:connector-curvature="0"
       style="fill:#e9b7b7;fill-opacity:1" />
    <path
       d="m 84.9026,-25.7949 c -1.7029,-0.0098 -3.073,1.3447 -3.0828,3.0475 L 81.5254,28.509 c -0.0098,1.7028 1.3447,3.073 3.0475,3.0827 l 2.3841,0.0137 c 1.6177,0.0093 3.073,-1.3447 3.0827,-3.0475 L 90.163,7.10174 99.699,7.15651 c 1.703,0.00978 3.073,-1.34469 3.083,-3.04756 l 0.013,-2.29887 c 0.01,-1.702867 -1.345,-3.07299 -3.0476,-3.08277 l -9.536,-0.05477 0.0919,-16.00694 12.9417,0.0743 c 1.703,0.0098 3.073,-1.3447 3.083,-3.0475 l 0.013,-2.2989 c 0.01,-1.7029 -1.345,-3.073 -3.047,-3.0828 z"
       id="path64293"
       inkscape:connector-curvature="0"
       style="fill:#5bcfbf;fill-opacity:1" />
    <path
       d="m 119.737,-23.8068 c -0.335,-0.8534 -1.777,-1.7983 -2.799,-1.8041 l -2.725,-0.0157 c -2.384,-0.0137 -3.758,2.1071 -2.834,4.2411 3.612,8.5353 7.31,16.98605 10.922,25.52142 L 122.16,28.7424 c -0.01,1.7028 1.345,3.073 2.963,3.0822 l 2.384,0.0137 c 1.702,0.0098 3.073,-1.3447 3.082,-3.0475 L 130.73,4.26948 141.86,-21.2105 c 0.864,-2.1237 -0.486,-4.2601 -2.785,-4.2733 l -2.81,-0.0161 c -0.936,-0.0054 -2.389,0.9229 -2.82,1.7719 l -6.901,15.62723 z"
       id="path64295"
       inkscape:connector-curvature="0"
       style="fill:#5bcfbf;fill-opacity:1" />
    <path
       d="m -133.048,-22.5305 c -13.39,15.37225 -11.729,38.5451 3.574,51.876 15.304,13.3309 38.5541,11.8582 51.9448,-3.514 13.3907,-15.3723 11.7298,-38.5451 -3.6425,-51.9358 -15.3722,-13.3907 -38.5453,-11.7298 -51.8763,3.5738 z m 43.1661,37.6016 c -7.4127,8.5096 -20.3821,9.4031 -28.8911,1.9904 -8.51,-7.41275 -9.335,-20.32197 -1.922,-28.8316 7.413,-8.5096 20.322,-9.3345 28.763,-1.9815 8.441,7.3529 9.4628,20.31305 2.0501,28.8227 z"
       id="path64297"
       inkscape:connector-curvature="0"
       style="fill:#e9b7b7;fill-opacity:1" />
    <path
       d="m -98.2089,-6.5459 c 4.5102,3.92885 4.9815,10.77008 1.0527,15.28031 -3.9288,4.51019 -10.7698,4.98149 -15.2808,1.05269 -4.51,-3.92885 -4.981,-10.770076 -1.052,-15.28031 3.929,-4.51019 10.77,-4.98149 15.2801,-1.05269 z"
       id="path64299"
       inkscape:connector-curvature="0"
       style="fill:#e9b7b7;fill-opacity:1" />
    <path
       d="m -105.599,-27.6095 c -15.357,0.276 -27.572,13.0159 -27.297,28.296587 l 0.42,23.420213 0.079,4.3769 0.059,3.3018 c 0.1,5.5287 4.633,9.9024 10.162,9.803 5.529,-0.0993 9.902,-4.633 9.803,-10.1617 l -0.059,-3.3019 7.755,-0.1394 C -89.3192,27.71 -77.1045,14.9701 -77.3791,-0.310587 -77.5783,-15.6695 -90.3182,-27.8841 -105.599,-27.6095 Z"
       id="path64301"
       inkscape:connector-curvature="0"
       style="fill:#5bcfbf;fill-opacity:1;stroke:#ffffff;stroke-width:1.39563;stroke-linecap:square;stroke-linejoin:miter" />
    <path
       d="m -96.8232,-0.82954 c 0.1314,-2.04562 -0.2285,-4.10314 -1.1327,-6.0263 -5.0931,-10.31806 -19.5991,-9.65286 -26.0601,0.63153 5.63,-14.54959 23.698,-14.09609 29.3856,-1.91147 3.2423,6.89686 0.3393,15.10379 -6.4956,18.47878 -0.132,0.0623 -0.216,0.1422 -0.349,0.2046 -0.199,0.0935 -0.464,0.2182 -0.645,0.263 2.045,0.1315 4.1028,-0.2285 6.026,-1.13263 10.3181,-5.09362 9.6528,-19.59885 -0.6316,-26.05967 14.5496,5.6298 14.0961,23.69743 1.9115,29.3851 -6.8969,3.2424 -15.1039,0.3394 -18.4789,-6.49516 -0.062,-0.13263 -0.142,-0.21652 -0.204,-0.34915 -0.094,-0.19895 -0.17,-0.44664 -0.263,-0.64559 -0.132,2.04562 0.228,4.10314 1.132,6.0263 5.045,10.3005 19.5678,9.5865 26.0286,-0.6978 -5.5985,14.6159 -23.6666,14.1623 -29.3536,1.9777 -3.243,-6.89682 -0.34,-15.10375 6.495,-18.47871 0.133,-0.06235 0.216,-0.14227 0.349,-0.20463 0.199,-0.09353 0.447,-0.16948 0.646,-0.26301 -2.046,-0.13145 -4.104,0.22853 -6.027,1.13264 -10.318,5.0936207 -9.653,19.59881 0.632,26.05961 -14.55,-5.6297 -14.096,-23.69737 -1.912,-29.38506 6.897,-3.24234 15.104,-0.33933 18.4791,6.49518 0.0624,0.13263 0.1423,0.21652 0.2047,0.34915 0.0935,0.19895 0.1695,0.44664 0.263,0.64559 z"
       id="path64303"
       inkscape:connector-curvature="0"
       style="fill:#ffe876;fill-opacity:1;stroke:#016563;stroke-width:0.70953399;stroke-linecap:square;stroke-linejoin:miter" />
  </g>
</svg>
